<?xml version="1.0" encoding="utf-8"?>
<!-- Generator: Adobe Illustrator 16.0.4, SVG Export Plug-In . SVG Version: 6.00 Build 0)  -->
<!DOCTYPE svg PUBLIC "-//W3C//DTD SVG 1.1//EN" "http://www.w3.org/Graphics/SVG/1.1/DTD/svg11.dtd">
<svg version="1.1" xmlns="http://www.w3.org/2000/svg" xmlns:xlink="http://www.w3.org/1999/xlink" x="0px" y="0px" width="72px"
	 height="60px" viewBox="0 0 72 60" enable-background="new 0 0 72 60" xml:space="preserve">
<g id="Layer_2_1_">
	<polygon fill="#0295D2" points="4.221,53.033 70.177,41.403 69.027,32.125 3.975,43.596 	"/>
	<polygon fill="#4426DF" points="4.373,60.066 33.349,57.781 59.135,56.07 71.938,55.951 70.092,41.045 4.18,52.666 	"/>
	<polygon fill="#F68B1F" points="67.265,4.499 1.63,16.072 2.017,18.677 2.629,25.377 67.847,13.877 	"/>
	<polygon fill="#FFC019" points="3.458,34.448 68.413,22.995 67.831,13.617 2.605,25.117 	"/>
	<polygon fill="#57AD68" points="68.934,31.37 68.41,22.948 3.454,34.401 3.847,38.703 3.98,43.789 69.051,32.315 	"/>
	<polygon fill="#ED1C24" points="66.986,0 47.545,2.367 25.26,3.832 0.032,5.291 1.663,16.268 67.278,4.698 	"/>
</g>
<g id="Layer_3">
	<g id="Layer_1_1_">
		<title>Untitled</title>
		<path fill="#FFFFFF" d="M16.763,44.634c-0.2-1.5-1.04-2.216-2.4-3.175c-1.118-0.788-1.99-1.345-2.12-2.324
			c-0.08-0.613,0.28-1.05,0.83-1.119c0.643-0.086,1.007,0.285,1.195,1.213l1.63-0.453c-0.354-1.666-1.534-2.522-2.985-2.334
			c-1.485,0.197-2.548,1.508-2.34,3.068c0.187,1.424,1.182,2.2,2.617,3.24c1.054,0.764,1.796,1.227,1.916,2.13
			c0.083,0.63-0.322,1.103-0.968,1.188c-0.742,0.096-1.216-0.37-1.423-1.45l-1.596,0.46c0.33,1.89,1.586,2.83,3.296,2.605
			c1.565-0.207,2.556-1.461,2.346-3.055v0.004L16.763,44.634z M31.885,45.134v-0.002V45.134z M28.13,34.626l-0.3,6.147
			c-0.026,0.535,0.005,1.265,0.078,1.814c-0.078-0.582-0.225-1.312-0.386-1.79l-1.938-5.837l-2.287,0.3l1.43,10.815l1.58-0.208
			l-0.63-4.767l-0.3-2.062c-0.06-0.443-0.148-1.07-0.337-1.87c0.05,0.132,0.227,0.64,0.504,1.49l2.296,7.006l0.87-0.114l0.46-7.369
			c0.024-0.299,0.066-0.816,0.097-1.57c0.03,0.964,0.107,1.59,0.147,1.896l0.24,2.028l0.637,4.807l1.595-0.21L30.454,34.32
			l-2.322,0.307L28.13,34.626z M34.892,43.08l-0.37-2.721l2.207-0.314l-0.203-1.514l-2.204,0.318l-0.444-3.42l2.612-0.371
			l-0.204-1.537l-4.323,0.596l1.43,10.812l3.919-0.527l0.004,0.002L37.1,42.781L34.892,43.08z"/>
		<path fill="#FFFFFF" d="M41.135,35.486l-5.73,0.742l0.206,1.502l2.186-0.289l1.225,9.308l1.709-0.226l-1.226-9.303l1.836-0.229
			L41.135,35.486z M44.432,41.117l1.756-0.233l0.643,4.843l1.707-0.226l-1.43-10.813l-1.711,0.225l0.584,4.41l-1.758,0.234
			l-0.584-4.41l-1.693,0.223l1.433,10.814l1.692-0.223L44.432,41.117z M44.046,52.673l-0.18-1.466l1.491-0.184l0.181,1.466
			L44.046,52.673z M51.764,45.07v-0.002V45.07z M50.023,45.302L48.592,34.49l1.74-0.232l1.432,10.812L50.023,45.302z M54.863,44.658
			l-0.57-4.303l-0.202-1.346c-0.03-0.23-0.136-0.73-0.366-1.477c0.199,0.503,0.396,0.865,0.527,1.128l2.938,5.694l1.598-0.211
			L57.35,33.33l-1.594,0.21l0.68,5.149l0.16,1c0.024,0.188,0.115,0.69,0.36,1.438c-0.267-0.65-0.446-1.018-0.492-1.105l-3.082-6.17
			l-1.53,0.203l1.434,10.813L54.863,44.658L54.863,44.658z M62.957,47.256l-2.426,0.301l0.134,1.065l1.038-0.128l0.08,0.64
			c-0.2,0.171-0.46,0.276-0.815,0.32c-0.836,0.104-1.507-0.433-1.61-1.282v-0.014c-0.102-0.805,0.406-1.516,1.168-1.608
			c0.52-0.065,0.92,0.07,1.334,0.337l0.729-1.134c-0.614-0.412-1.306-0.618-2.231-0.504c-1.633,0.2-2.69,1.55-2.5,3.085l0.002,0.016
			c0.197,1.594,1.562,2.569,3.205,2.365c0.957-0.115,1.688-0.564,2.189-1.093h-0.003L62.957,47.256L62.957,47.256z M64.645,37.814
			l-2.733,0.359l0.185,1.378l1.09-0.144l0.226,1.684c0.097,0.754-0.183,1.18-0.78,1.258c-0.6,0.08-0.98-0.263-1.08-1.013l-0.8-6.034
			c-0.101-0.75,0.185-1.164,0.783-1.24c0.598-0.08,0.978,0.244,1.077,0.994l0.154,1.148l1.643-0.215l-0.133-0.996
			c-0.24-1.838-1.228-2.658-2.873-2.439c-1.744,0.229-2.598,1.401-2.375,3.086l0.731,5.543c0.261,1.963,1.229,2.894,2.796,2.688
			c0.775-0.104,1.266-0.477,1.564-1.2l0.438,0.703l0.814-0.104h-0.002l-0.723-5.455H64.645z M22.296,37.982
			c-0.232-1.746-1.39-2.637-2.987-2.424c-1.744,0.228-2.597,1.399-2.375,3.084l0.735,5.545c0.263,1.976,1.324,2.879,3.065,2.649
			c1.71-0.228,2.55-1.397,2.295-3.31L22.296,37.982L22.296,37.982z M20.518,45.223C19.921,45.3,19.54,44.96,19.44,44.21
			l-0.798-6.035c-0.1-0.75,0.182-1.163,0.778-1.239c0.6-0.08,0.978,0.244,1.077,0.992l0.798,6.036c0.1,0.75-0.18,1.177-0.777,1.257
			V45.223z M51.504,49.096v-0.015c-0.188-1.513-1.543-2.572-3.17-2.37c-1.625,0.2-2.693,1.577-2.507,3.086l0.002,0.016
			c0.187,1.51,1.54,2.574,3.165,2.373c1.628-0.199,2.695-1.576,2.51-3.086v-0.002V49.096z M48.906,50.836h-0.002
			c-0.801,0.098-1.43-0.495-1.523-1.254v-0.016c-0.093-0.76,0.362-1.471,1.16-1.57c0.805-0.1,1.438,0.495,1.532,1.256v0.014
			C50.167,50.023,49.715,50.736,48.906,50.836L48.906,50.836z M56.074,49.348c0.624-0.356,0.986-0.945,0.886-1.75l-0.002-0.014
			c-0.063-0.52-0.272-0.904-0.618-1.168c-0.4-0.316-0.982-0.46-1.787-0.357l-2.494,0.306l0.65,5.26l1.46-0.181l-0.196-1.592
			l0.625-0.076l0.014-0.002l1.26,1.463l1.688-0.207l-1.484-1.68V49.348L56.074,49.348z M54.831,48.448l-0.96,0.12l-0.16-1.268
			l0.957-0.115c0.49-0.062,0.814,0.113,0.867,0.526l0.002,0.017C55.585,48.113,55.329,48.389,54.831,48.448L54.831,48.448z
			 M25.902,33.128c0.992-0.255,2.063-0.72,3.214-1.387c1.15-0.666,2.114-1.517,2.892-2.547c0.78-1.03,1.392-2.353,1.838-3.963
			c0.445-1.612,0.593-3.277,0.442-4.995c-0.187-2.126-0.773-4.025-1.758-5.695c-0.986-1.673-2.214-2.97-3.684-3.887
			c-1.47-0.918-2.974-1.463-4.51-1.632c-1.536-0.17-3.54-0.144-6.013,0.07L6.57,10.118l0.368,4.186l3.76-0.33l1.438,16.394
			l-3.76,0.33l0.366,4.183l12.52-1.096C23.367,33.604,24.912,33.382,25.902,33.128L25.902,33.128z M18.575,29.804L17.137,13.41
			l1.552-0.136c1.77-0.155,3.252-0.033,4.442,0.366c1.19,0.397,2.18,1.225,2.967,2.483c0.786,1.26,1.264,2.832,1.43,4.718
			c0.173,1.984-0.02,3.616-0.577,4.903c-0.56,1.284-1.366,2.22-2.423,2.804c-1.057,0.585-2.524,0.956-4.402,1.12l-1.553,0.137
			L18.575,29.804z M40.102,29.927c2.588,2.122,6.114,3.097,10.561,2.575c4.333-0.507,7.505-2.227,9.58-4.823
			c2.162-2.705,3-5.974,2.6-9.38v0.003c-0.402-3.436-1.979-6.406-4.688-8.528c-2.629-2.063-6.125-3-10.456-2.49
			c-4.337,0.507-7.525,2.233-9.601,4.86c-2.12,2.688-2.964,5.93-2.562,9.355C35.926,24.819,37.456,27.761,40.102,29.927
			L40.102,29.927z M43.689,14.432c1.14-1.59,2.744-2.462,4.531-2.67c1.983-0.233,3.756,0.34,5.17,1.666
			c1.385,1.297,2.285,3.182,2.57,5.606c0.316,2.696-0.175,4.803-1.283,6.33c-1.14,1.57-2.729,2.46-4.544,2.67
			c-1.944,0.228-3.674-0.337-5.081-1.6c-1.431-1.286-2.341-3.183-2.621-5.588c-0.326-2.772,0.162-4.897,1.256-6.414H43.689z"/>
		<g>
			<path fill="#FFFFFF" d="M31.885,45.195v-0.002V45.195z"/>
		</g>
		<g>
			<path fill="#FFFFFF" d="M39.503,37.282v-0.003V37.282z"/>
		</g>
		<g>
			<path fill="#FFFFFF" d="M51.764,45.132V45.13V45.132z"/>
		</g>
	</g>
</g>
</svg>
